M48
; DRILL file {KiCad 9.0.7} date 2026-03-03T15:12:45+0100
; FORMAT={-:-/ absolute / metric / decimal}
; #@! TF.CreationDate,2026-03-03T15:12:45+01:00
; #@! TF.GenerationSoftware,Kicad,Pcbnew,9.0.7
; #@! TF.FileFunction,MixedPlating,1,2
FMAT,2
METRIC
; #@! TA.AperFunction,Plated,PTH,ComponentDrill
T1C0.800
; #@! TA.AperFunction,Plated,PTH,ComponentDrill
T2C0.900
; #@! TA.AperFunction,Plated,PTH,ComponentDrill
T3C0.950
; #@! TA.AperFunction,Plated,PTH,ComponentDrill
T4C1.000
; #@! TA.AperFunction,Plated,PTH,ComponentDrill
T5C2.200
; #@! TA.AperFunction,NonPlated,NPTH,ComponentDrill
T6C2.700
%
G90
G05
T1
X161.0Y-104.281
X161.0Y-111.901
X167.0Y-104.281
X167.0Y-111.901
T2
X159.0Y-93.091
X161.54Y-93.091
X165.725Y-93.091
X168.265Y-93.091
T3
X136.468Y-81.5
X136.468Y-84.0
X136.468Y-86.5
X136.468Y-89.0
X136.468Y-91.5
T4
X117.07Y-101.0
X117.07Y-103.54
X117.07Y-106.08
X117.07Y-108.62
X117.07Y-111.16
X117.07Y-113.7
X117.07Y-116.24
X117.07Y-118.78
X125.13Y-129.968
X126.0Y-80.96
X126.0Y-83.5
X126.0Y-86.04
X126.0Y-88.58
X126.0Y-91.12
X127.67Y-129.968
X130.21Y-129.968
X132.75Y-129.968
X139.93Y-101.0
X139.93Y-103.54
X139.93Y-106.08
X139.93Y-108.62
X139.93Y-111.16
X139.93Y-113.7
X139.93Y-116.24
X139.93Y-118.78
X164.88Y-130.591
X167.42Y-130.591
X169.96Y-130.591
X172.5Y-130.591
T5
X174.25Y-93.091
X177.75Y-93.091
T6
X116.5Y-75.5
X116.5Y-134.5
X140.5Y-75.5
X140.5Y-134.5
X156.5Y-75.591
X156.5Y-134.591
X180.5Y-75.591
X180.5Y-134.591
M30
