M48
; DRILL file {KiCad 9.0.7} date 2026-03-19T15:28:08+0100
; FORMAT={-:-/ absolute / metric / decimal}
; #@! TF.CreationDate,2026-03-19T15:28:08+01:00
; #@! TF.GenerationSoftware,Kicad,Pcbnew,9.0.7
; #@! TF.FileFunction,MixedPlating,1,2
FMAT,2
METRIC
; #@! TA.AperFunction,Plated,PTH,ComponentDrill
T1C0.800
; #@! TA.AperFunction,Plated,PTH,ComponentDrill
T2C0.900
; #@! TA.AperFunction,Plated,PTH,ComponentDrill
T3C0.950
; #@! TA.AperFunction,Plated,PTH,ComponentDrill
T4C1.000
; #@! TA.AperFunction,NonPlated,NPTH,ComponentDrill
T5C2.700
%
G90
G05
T1
X159.5Y-104.69
X159.5Y-112.31
X159.5Y-116.69
X159.5Y-124.31
T2
X167.23Y-104.5
X167.23Y-117.0
X169.77Y-104.5
X169.77Y-117.0
T3
X136.968Y-82.0
X136.968Y-84.5
X136.968Y-87.0
X136.968Y-89.5
X136.968Y-92.0
T4
X117.07Y-101.0
X117.07Y-103.54
X117.07Y-106.08
X117.07Y-108.62
X117.07Y-111.16
X117.07Y-113.7
X117.07Y-116.24
X117.07Y-118.78
X124.69Y-118.0
X125.73Y-80.92
X125.73Y-83.46
X125.73Y-86.0
X125.73Y-88.54
X125.73Y-91.08
X127.23Y-118.0
X129.77Y-118.0
X132.31Y-118.0
X139.93Y-101.0
X139.93Y-103.54
X139.93Y-106.08
X139.93Y-108.62
X139.93Y-111.16
X139.93Y-113.7
X139.93Y-116.24
X139.93Y-118.78
X164.69Y-130.0
X167.23Y-130.0
X169.77Y-130.0
X172.31Y-130.0
T5
X116.5Y-75.5
X116.5Y-134.5
X140.5Y-75.5
X140.5Y-134.5
X156.5Y-75.5
X156.5Y-134.5
X180.5Y-75.5
X180.5Y-134.5
T1
G00X166.9Y-90.26
M15
G01X166.9Y-88.66
M16
G05
G00X170.1Y-90.26
M15
G01X170.1Y-88.66
M16
G05
M30
